<mxfile host="app.diagrams.net" modified="2024-04-23T04:06:25.267Z" agent="Mozilla/5.0 (Windows NT 10.0; Win64; x64) AppleWebKit/537.36 (KHTML, like Gecko) Chrome/123.0.0.0 Safari/537.36" etag="n8ay04d361aqFUPEXdAT" version="24.2.8" type="github">
  <diagram id="YI5tZ3J1dkBAkRPo44fP" name="ページ1">
    <mxGraphModel dx="1434" dy="780" grid="1" gridSize="10" guides="1" tooltips="1" connect="1" arrows="1" fold="1" page="1" pageScale="1" pageWidth="827" pageHeight="583" math="0" shadow="0">
      <root>
        <mxCell id="0" />
        <mxCell id="1" parent="0" />
        <mxCell id="ZjZ6tUaesva7MJj_6xMt-2" value="" style="rounded=0;whiteSpace=wrap;html=1;fillColor=none;" parent="1" vertex="1">
          <mxGeometry x="30" y="55" width="790" height="500" as="geometry" />
        </mxCell>
        <mxCell id="ZjZ6tUaesva7MJj_6xMt-1" value="host" style="fontColor=#0066CC;verticalAlign=top;verticalLabelPosition=bottom;labelPosition=center;align=center;html=1;outlineConnect=0;fillColor=#CCCCCC;strokeColor=#6881B3;gradientColor=none;gradientDirection=north;strokeWidth=2;shape=mxgraph.networks.pc;" parent="1" vertex="1">
          <mxGeometry x="10" y="20" width="100" height="70" as="geometry" />
        </mxCell>
        <mxCell id="ZjZ6tUaesva7MJj_6xMt-6" value="browser" style="aspect=fixed;html=1;points=[];align=center;image;fontSize=12;image=img/lib/azure2/general/Browser.svg;fillColor=none;" parent="1" vertex="1">
          <mxGeometry x="40" y="280" width="87.5" height="70" as="geometry" />
        </mxCell>
        <mxCell id="ZjZ6tUaesva7MJj_6xMt-8" value="" style="rounded=0;whiteSpace=wrap;html=1;fillColor=#CCFFE6;opacity=30;" parent="1" vertex="1">
          <mxGeometry x="280" y="110" width="510" height="430" as="geometry" />
        </mxCell>
        <mxCell id="ZjZ6tUaesva7MJj_6xMt-7" value="compose" style="sketch=0;aspect=fixed;html=1;points=[];align=center;image;fontSize=12;image=img/lib/mscae/Docker.svg;fillColor=none;" parent="1" vertex="1">
          <mxGeometry x="250" y="80" width="60.98" height="50" as="geometry" />
        </mxCell>
        <mxCell id="ZjZ6tUaesva7MJj_6xMt-9" value="postgres:5432&lt;br&gt;postgres / post" style="sketch=0;aspect=fixed;html=1;points=[];align=center;image;fontSize=12;image=img/lib/mscae/Azure_Database_for_PostgreSQL_servers.svg;fillColor=none;" parent="1" vertex="1">
          <mxGeometry x="670" y="270.68" width="78" height="102.63" as="geometry" />
        </mxCell>
        <mxCell id="ZjZ6tUaesva7MJj_6xMt-11" value="pgadmin" style="image;html=1;image=img/lib/clip_art/computers/Server_128x128.png;fillColor=none;" parent="1" vertex="1">
          <mxGeometry x="373.5" y="283" width="80" height="80" as="geometry" />
        </mxCell>
        <mxCell id="ZjZ6tUaesva7MJj_6xMt-18" value="" style="shape=cylinder3;whiteSpace=wrap;html=1;boundedLbl=1;backgroundOutline=1;size=15;fillColor=none;rotation=90;" parent="1" vertex="1">
          <mxGeometry x="240" y="282" width="60" height="80" as="geometry" />
        </mxCell>
        <mxCell id="ZjZ6tUaesva7MJj_6xMt-20" value="" style="endArrow=none;html=1;rounded=0;exitX=0.5;exitY=0;exitDx=0;exitDy=0;exitPerimeter=0;" parent="1" source="ZjZ6tUaesva7MJj_6xMt-18" target="ZjZ6tUaesva7MJj_6xMt-11" edge="1">
          <mxGeometry width="50" height="50" relative="1" as="geometry">
            <mxPoint x="320" y="210" as="sourcePoint" />
            <mxPoint x="380" y="220" as="targetPoint" />
          </mxGeometry>
        </mxCell>
        <mxCell id="ZjZ6tUaesva7MJj_6xMt-21" value="80" style="edgeLabel;html=1;align=right;verticalAlign=top;resizable=0;points=[];" parent="ZjZ6tUaesva7MJj_6xMt-20" vertex="1" connectable="0">
          <mxGeometry x="-0.3963" y="-1" relative="1" as="geometry">
            <mxPoint as="offset" />
          </mxGeometry>
        </mxCell>
        <mxCell id="ZjZ6tUaesva7MJj_6xMt-26" value="" style="endArrow=none;html=1;rounded=0;entryX=0.5;entryY=1;entryDx=0;entryDy=0;entryPerimeter=0;exitX=0.99;exitY=0.59;exitDx=0;exitDy=0;exitPerimeter=0;" parent="1" source="ZjZ6tUaesva7MJj_6xMt-6" target="ZjZ6tUaesva7MJj_6xMt-18" edge="1">
          <mxGeometry width="50" height="50" relative="1" as="geometry">
            <mxPoint x="93.82608695652175" y="290" as="sourcePoint" />
            <mxPoint x="240" y="210" as="targetPoint" />
            <Array as="points" />
          </mxGeometry>
        </mxCell>
        <mxCell id="ZjZ6tUaesva7MJj_6xMt-27" value="5050" style="edgeLabel;html=1;align=left;verticalAlign=top;resizable=0;points=[];labelPosition=right;verticalLabelPosition=middle;" parent="ZjZ6tUaesva7MJj_6xMt-26" vertex="1" connectable="0">
          <mxGeometry x="0.4322" y="-1" relative="1" as="geometry">
            <mxPoint x="-1" y="-1" as="offset" />
          </mxGeometry>
        </mxCell>
        <mxCell id="ZjZ6tUaesva7MJj_6xMt-29" value="" style="endArrow=none;html=1;rounded=0;exitX=1;exitY=0.5;exitDx=0;exitDy=0;entryX=-0.011;entryY=0.502;entryDx=0;entryDy=0;entryPerimeter=0;" parent="1" source="ZjZ6tUaesva7MJj_6xMt-11" target="ZjZ6tUaesva7MJj_6xMt-9" edge="1">
          <mxGeometry width="50" height="50" relative="1" as="geometry">
            <mxPoint x="530" y="400" as="sourcePoint" />
            <mxPoint x="580" y="350" as="targetPoint" />
          </mxGeometry>
        </mxCell>
      </root>
    </mxGraphModel>
  </diagram>
</mxfile>
